<svg width="1600" height="900" viewBox="0 0 1600 900" fill="none" xmlns="http://www.w3.org/2000/svg">
  <defs>
    <linearGradient id="bg" x1="120" y1="80" x2="1480" y2="820" gradientUnits="userSpaceOnUse">
      <stop stop-color="#040810"/><stop offset="0.5" stop-color="#0a1628"/><stop offset="1" stop-color="#020617"/>
    </linearGradient>
    <radialGradient id="glow" cx="0" cy="0" r="1" gradientUnits="userSpaceOnUse" gradientTransform="translate(1120 180) rotate(130) scale(620 680)">
      <stop stop-color="#22d3ee" stop-opacity="0.45"/><stop offset="1" stop-opacity="0"/>
    </radialGradient>
    <radialGradient id="accent" cx="0" cy="0" r="1" gradientUnits="userSpaceOnUse" gradientTransform="translate(280 720) rotate(-12) scale(520 360)">
      <stop stop-color="#a855f7" stop-opacity="0.35"/><stop offset="1" stop-opacity="0"/>
    </radialGradient>
  </defs>
  <rect width="1600" height="900" fill="url(#bg)"/>
  <rect width="1600" height="900" fill="url(#glow)"/>
  <rect width="1600" height="900" fill="url(#accent)"/>
  <g opacity="0.18" stroke="#22d3ee" stroke-opacity="0.55">
    <path d="M0 112.5H1600"/><path d="M0 225H1600"/><path d="M0 337.5H1600"/><path d="M0 450H1600"/><path d="M0 562.5H1600"/><path d="M0 675H1600"/><path d="M0 787.5H1600"/><path d="M0 900H1600"/>
    <path d="M200 0V900"/><path d="M400 0V900"/><path d="M600 0V900"/><path d="M800 0V900"/><path d="M1000 0V900"/><path d="M1200 0V900"/><path d="M1400 0V900"/>
  </g>
  <rect x="120" y="130" width="620" height="320" rx="28" fill="#08131c" fill-opacity="0.88" stroke="#22d3ee" stroke-opacity="0.35"/>
  <rect x="780" y="130" width="700" height="280" rx="28" fill="#091720" fill-opacity="0.82" stroke="#34d399" stroke-opacity="0.28"/>
  <rect x="120" y="490" width="1360" height="280" rx="28" fill="#091720" fill-opacity="0.78" stroke="#a855f7" stroke-opacity="0.25"/>
  <circle cx="920" cy="270" r="88" fill="#0b2834" stroke="#22d3ee" stroke-opacity="0.5"/>
  <circle cx="920" cy="270" r="34" fill="#22d3ee" fill-opacity="0.85"/>
  <text x="160" y="860" fill="#22d3ee" fill-opacity="0.9" font-family="ui-sans-serif, system-ui, sans-serif" font-size="42" font-weight="700" letter-spacing="0.24em">IMMORTALITY</text>
</svg>