<svg width="1600" height="900" viewBox="0 0 1600 900" fill="none" xmlns="http://www.w3.org/2000/svg">
  <defs>
    <linearGradient id="bg" x1="131" y1="111" x2="1458" y2="826" gradientUnits="userSpaceOnUse">
      <stop stop-color="#07111B"/>
      <stop offset="0.56" stop-color="#0A1622"/>
      <stop offset="1" stop-color="#03070D"/>
    </linearGradient>
  </defs>
  <rect width="1600" height="900" fill="url(#bg)"/>
  <path d="M-56 700C125 626 229 557 378 557C525 557 612 658 756 658C896 658 980 573 1120 573C1282 573 1380 699 1657 804V900H-56V700Z" fill="#6BEAFF" fill-opacity="0.12"/>
  <path d="M-40 615C141 541 245 472 394 472C541 472 628 573 772 573C912 573 996 488 1136 488C1298 488 1396 614 1673 719" stroke="#6BEAFF" stroke-width="3" stroke-opacity="0.42"/>
  <path d="M-40 676C141 602 245 533 394 533C541 533 628 634 772 634C912 634 996 549 1136 549C1298 549 1396 675 1673 780" stroke="#F6B75E" stroke-width="3" stroke-opacity="0.32"/>
  <rect x="108" y="124" width="1384" height="298" rx="34" fill="#091521" fill-opacity="0.82" stroke="#6BEAFF" stroke-opacity="0.18"/>
  <text x="150" y="182" fill="#B7DFFF" font-family="'IBM Plex Mono', monospace" font-size="18" letter-spacing="5.6">BOOTSTRAP CHANNEL</text>
  <text x="150" y="268" fill="white" font-family="'Space Grotesk', sans-serif" font-size="74" font-weight="700">Ship the environment as a system.</text>
  <text x="150" y="324" fill="#A9C3D8" font-family="'Manrope', sans-serif" font-size="26">Portable setup, repeatable conventions, and versioned launch kits across stacks and hosts.</text>
  <g opacity="0.9">
    <rect x="148" y="488" width="246" height="180" rx="28" fill="#0B1823" stroke="#74E7FF" stroke-opacity="0.2"/>
    <rect x="436" y="488" width="246" height="180" rx="28" fill="#0B1823" stroke="#74E7FF" stroke-opacity="0.2"/>
    <rect x="724" y="488" width="246" height="180" rx="28" fill="#0B1823" stroke="#74E7FF" stroke-opacity="0.2"/>
    <rect x="1012" y="488" width="246" height="180" rx="28" fill="#0B1823" stroke="#74E7FF" stroke-opacity="0.2"/>
    <rect x="1300" y="488" width="190" height="180" rx="28" fill="#0B1823" stroke="#74E7FF" stroke-opacity="0.2"/>
  </g>
  <text x="180" y="548" fill="#6BEAFF" font-family="'IBM Plex Mono', monospace" font-size="16" letter-spacing="4.8">SERVICES</text>
  <text x="468" y="548" fill="#F6B75E" font-family="'IBM Plex Mono', monospace" font-size="16" letter-spacing="4.8">CONFIG PACKS</text>
  <text x="756" y="548" fill="#7DF2C7" font-family="'IBM Plex Mono', monospace" font-size="16" letter-spacing="4.8">HOST STATE</text>
  <text x="1044" y="548" fill="#6BEAFF" font-family="'IBM Plex Mono', monospace" font-size="16" letter-spacing="4.8">UPDATES</text>
  <text x="1328" y="548" fill="#B7DFFF" font-family="'IBM Plex Mono', monospace" font-size="16" letter-spacing="4.8">LOGS</text>
</svg>
